<svg id="レイヤー_1" data-name="レイヤー 1" xmlns="http://www.w3.org/2000/svg" viewBox="0 0 140 35"><defs><style>.cls-1{fill:#d2111a;}.cls-2{fill:#231815;}</style></defs><path class="cls-1" d="M8.59,17.5l7-7a7,7,0,0,0-7,7"/><path class="cls-1" d="M15.59,24.5l-7-7a7,7,0,0,0,7,7"/><path class="cls-1" d="M12.09,17.5l3.5,3.5,3.5-3.5-.87-.87-1.75,1.75-1.75-1.75,3.5-3.51,4.37,4.38a7,7,0,0,0-7-7l1.75,1.75Z"/><path class="cls-1" d="M15.59,24.5a7,7,0,0,0,7-7Z"/><path class="cls-2" d="M71.8,15.44a.86.86,0,0,1,1-.85,1,1,0,0,1,1,1.09h1.39a2.26,2.26,0,0,0-2.4-2.43,2.24,2.24,0,0,0-2.42,2.19c0,2.31,3.45,2.39,3.45,4a.94.94,0,0,1-1.07.93,1.2,1.2,0,0,1-1.19-1.23H70.12a2.51,2.51,0,0,0,2.61,2.59,2.27,2.27,0,0,0,2.52-2.29c0-2.48-3.45-2.63-3.45-4m37.2,3.5-.85-5.42h-1.56l-.85,5.42-1-5.42h-1.41l1.51,8h1.62l.87-5.54.78,5.54h1.63l1.59-8h-1.43Zm20.83.44c-.13.36-.39.76-1.28.76h-.61V14.86h.61c.89,0,1.15.4,1.28.76A6,6,0,0,1,130,17.5a6,6,0,0,1-.14,1.88m-1.22-5.86H126.5v8h2.11A2.38,2.38,0,0,0,131,20.25a5.88,5.88,0,0,0,.38-2.75,5.85,5.85,0,0,0-.38-2.75,2.38,2.38,0,0,0-2.42-1.23M61,19.38c-.13.36-.39.76-1.28.76H59.1V14.86h.61c.89,0,1.15.4,1.28.76a5.69,5.69,0,0,1,.14,1.88A5.73,5.73,0,0,1,61,19.38m-1.21-5.86H57.66v8h2.12a2.36,2.36,0,0,0,2.41-1.23,5.88,5.88,0,0,0,.38-2.75,5.85,5.85,0,0,0-.38-2.75,2.36,2.36,0,0,0-2.41-1.23m-8,5.86c-.13.36-.39.76-1.28.76h-.62V14.86h.62c.89,0,1.15.4,1.28.76a6,6,0,0,1,.14,1.88,6,6,0,0,1-.14,1.88m-1.22-5.86H48.42v8h2.11A2.38,2.38,0,0,0,53,20.25a5.88,5.88,0,0,0,.38-2.75A5.85,5.85,0,0,0,53,14.75a2.38,2.38,0,0,0-2.42-1.23m40.66,5-2-5H87.52v8h1.4V16l2.18,5.46h1.48v-8H91.19ZM122,17.14h-1V14.83h1c.8,0,1.1.4,1.1,1.15s-.3,1.16-1.1,1.16M124.61,16a2.23,2.23,0,0,0-2.52-2.46h-2.54v8H121v-3h1l1.18,3h1.59l-1.33-3.31A2.24,2.24,0,0,0,124.61,16m-10.36,2.7.8-3.45.81,3.45Zm-.15-5.16-2,8h1.48l.35-1.5h2.22l.35,1.5H118l-2-8ZM98.88,18.68l.81-3.45.8,3.45Zm-.15-5.16-2,8h1.48l.35-1.5h2.23l.35,1.5h1.48l-2-8ZM45,19.58a1.08,1.08,0,0,1-2.07,0c0-.27,0-1,0-2.08s0-1.82,0-2.08a1.08,1.08,0,0,1,2.07,0c0,.26,0,1,0,2.08s0,1.81,0,2.08m1.46-4.4a2.27,2.27,0,0,0-2.49-1.93,2.25,2.25,0,0,0-2.49,1.93,18,18,0,0,0-.07,2.32,17.79,17.79,0,0,0,.07,2.31,2.24,2.24,0,0,0,2.49,1.93,2.26,2.26,0,0,0,2.49-1.93,19.83,19.83,0,0,0,.07-2.31,20,20,0,0,0-.07-2.32M38,19.58a1.08,1.08,0,0,1-2.08,0c0-.26,0-1,0-2.08s0-1.81,0-2.08a1.08,1.08,0,0,1,2.08,0c0,.27,0,1,0,2.08s0,1.82,0,2.08m1.45-4.39A2.26,2.26,0,0,0,37,13.26a2.26,2.26,0,0,0-2.49,1.93,19.83,19.83,0,0,0-.07,2.31,20,20,0,0,0,.07,2.32A2.26,2.26,0,0,0,37,21.75a2.26,2.26,0,0,0,2.49-1.93,20,20,0,0,0,.07-2.32,19.83,19.83,0,0,0-.07-2.31m37.63,6.29h1.48v-8H77.09Zm-11.2-3.34H68.3V16.79H65.89V14.86h2.72V13.52H64.45v8H68.7V20.13H65.89Zm-35.79.35h1a9.53,9.53,0,0,1,0,1.09.85.85,0,0,1-1,.78.91.91,0,0,1-1-.78c0-.26,0-1,0-2.08s0-1.81,0-2.08a1,1,0,0,1,1.93,0c0,.12,0,.41,0,.65H32.5a7.35,7.35,0,0,0,0-.88,2.15,2.15,0,0,0-2.36-1.93,2.22,2.22,0,0,0-2.45,1.93,19.83,19.83,0,0,0-.07,2.31,20,20,0,0,0,.07,2.32A2.22,2.22,0,0,0,30,21.75a1.75,1.75,0,0,0,1.57-.81l.2.54h.77v-3h0V17.23H30.1Zm53,0h1c0,.52,0,.91,0,1.09a.86.86,0,0,1-1,.78.89.89,0,0,1-1-.78c0-.26,0-1,0-2.08s0-1.81,0-2.08a1,1,0,0,1,1.92,0,5.08,5.08,0,0,1,0,.65h1.44a5.73,5.73,0,0,0,0-.88,2.15,2.15,0,0,0-2.36-1.93,2.22,2.22,0,0,0-2.45,1.93,19.83,19.83,0,0,0-.07,2.31,20,20,0,0,0,.07,2.32A2.22,2.22,0,0,0,83,21.75a1.78,1.78,0,0,0,1.58-.81l.2.54h.77v-3h0V17.23H83.09Z"/></svg>