<svg id="レイヤー_1" data-name="レイヤー 1" xmlns="http://www.w3.org/2000/svg" viewBox="0 0 140 35"><defs><style>.cls-1{fill:#00b9f2;}</style></defs><path class="cls-1" d="M96.72,10.63H90v.66h2V23.78H90v.66h7v-.66H94.83V18.24h2.26c2.61,0,5.41-1,5.41-3.77,0-2.59-1.89-3.84-5.78-3.84m.43,6.95H94.83V11.29h2.32c2.14,0,2.31,1.56,2.31,3.16C99.46,16.61,98.75,17.58,97.15,17.58Z"/><path class="cls-1" d="M85.34,11.56c-1.12-.69-2.24-.93-4.61-.93h-5v.66h2V23.78h-2v.66h4.8a9.27,9.27,0,0,0,4.75-.83,6.71,6.71,0,0,0,3.14-6.08,6.61,6.61,0,0,0-3-6M85.42,17a14.33,14.33,0,0,1-.51,4.29c-.76,2.3-1.82,2.47-4.34,2.47h-.12V11.29h0c2.76,0,3.24.3,3.93,1S85.42,14.26,85.42,17Z"/><path class="cls-1" d="M73.81,11.29v-.66H66.87v.66h2.19V22.15c0,1.83-.74,2.84-2.24,2.84-1,0-1.92-.56-2-1.07a.77.77,0,0,1,.25-.71,1.36,1.36,0,0,0,.5-1A1.53,1.53,0,0,0,64,20.68a1.71,1.71,0,0,0-1.55,2,2.31,2.31,0,0,0,.76,1.59,5.45,5.45,0,0,0,3.89,1.43c2,0,3.77-.78,4.39-2.34a12.92,12.92,0,0,0,.32-4.21V11.29h2"/><path class="cls-1" d="M48.35,6.65A10.85,10.85,0,1,0,59.2,17.5,10.85,10.85,0,0,0,48.35,6.65m0,1.26A9.6,9.6,0,0,1,57.82,16a9.77,9.77,0,0,0-1.68-.62,8.07,8.07,0,0,0-15.58,0,10.64,10.64,0,0,0-1.68.63A9.6,9.6,0,0,1,48.35,7.91Zm0,4.29a5.3,5.3,0,0,0-4.53,2.55c-.64.08-1.25.19-1.82.3a6.8,6.8,0,0,1,12.7,0c-.57-.11-1.18-.22-1.82-.3A5.29,5.29,0,0,0,48.35,12.2Zm2.77,2.38c-.88-.07-1.81-.11-2.77-.11s-1.88,0-2.77.11a4,4,0,0,1,5.54,0ZM48.35,27.09a9.59,9.59,0,0,1-9.59-9.59c0-.56.61-1.08,1.66-1.5a11.5,11.5,0,0,1,1.4-.46q.81-.21,1.77-.36c.52-.08,1.06-.15,1.63-.21,1-.09,2-.14,3.13-.14s2.15.05,3.13.14c.57.06,1.11.13,1.63.21s1.23.22,1.77.36a11,11,0,0,1,1.4.46c1,.42,1.66.94,1.66,1.5A9.59,9.59,0,0,1,48.35,27.09ZM55,16.24a9.35,9.35,0,0,0-1.7-.51c-.47-.1-1-.19-1.52-.26a27.48,27.48,0,0,0-6.94,0c-.54.07-1.05.16-1.52.26a9.35,9.35,0,0,0-1.7.51c-.87.36-1.38.79-1.38,1.26a8.08,8.08,0,1,0,16.15,0C56.43,17,55.92,16.6,55,16.24Zm-6.69,8.07a6.81,6.81,0,0,1-6.81-6.81c0-.48.63-.91,1.66-1.24a9.81,9.81,0,0,1,1.44-.35,22.36,22.36,0,0,1,7.42,0,9.5,9.5,0,0,1,1.44.35c1,.33,1.66.76,1.66,1.24A6.81,6.81,0,0,1,48.35,24.31Zm3.9-7.81a16.08,16.08,0,0,0-7.8,0c-.87.26-1.4.61-1.4,1a5.3,5.3,0,1,0,10.6,0C53.65,17.11,53.12,16.76,52.25,16.5Zm-3.9,5a4,4,0,0,1-4-4c0-.62,1.81-1.13,4-1.13s4,.51,4,1.13A4,4,0,0,1,48.35,21.54Zm0-4.74c-1.39,0-2.52.31-2.52.7a2.52,2.52,0,1,0,5,0C50.87,17.11,49.74,16.8,48.35,16.8Zm0,2.09A1.39,1.39,0,0,1,47,17.5c0-.21.62-.39,1.39-.39s1.39.18,1.39.39A1.39,1.39,0,0,1,48.35,18.89Z"/></svg>